<svg xmlns="http://www.w3.org/2000/svg" id="canvas" viewBox="39.240 60.376 219.348 78.261"><path d="M 52.77,78.13 C 52.62 78.53, 52.57 79.01, 52.46 80.14 C 52.35 81.27, 52.30 81.99, 52.22 83.78 C 52.15 85.57, 52.14 86.76, 52.07 89.08 C 52.01 91.40, 51.99 92.79, 51.90 95.38 C 51.80 97.97, 51.75 99.46, 51.61 102.03 C 51.47 104.60, 51.39 106.00, 51.20 108.22 C 51.00 110.44, 50.86 111.55, 50.63 113.14 C 50.41 114.73, 50.29 115.40, 50.07 116.16 C 49.85 116.93, 49.79 117.09, 49.54 116.96 C 49.30 116.83, 49.19 116.48, 48.85 115.51 C 48.50 114.53, 48.26 113.76, 47.81 112.10 C 47.37 110.45, 47.04 109.36, 46.62 107.24 C 46.20 105.12, 45.97 103.85, 45.70 101.50 C 45.43 99.15, 45.33 97.85, 45.28 95.49 C 45.24 93.13, 45.27 91.89, 45.47 89.70 C 45.67 87.51, 45.84 86.41, 46.28 84.54 C 46.72 82.66, 47.01 81.77, 47.68 80.35 C 48.34 78.93, 48.75 78.30, 49.62 77.43 C 50.48 76.57, 50.96 76.27, 52.00 76.01 C 53.04 75.75, 53.63 75.79, 54.82 76.11 C 56.01 76.44, 56.70 76.79, 57.95 77.66 C 59.20 78.52, 59.89 79.12, 61.08 80.43 C 62.28 81.73, 62.92 82.55, 63.92 84.17 C 64.91 85.79, 65.43 86.70, 66.08 88.52 C 66.72 90.34, 66.98 91.34, 67.13 93.28 C 67.28 95.22, 67.23 96.25, 66.82 98.23 C 66.41 100.21, 66.04 101.26, 65.07 103.18 C 64.11 105.10, 63.42 106.09, 61.99 107.83 C 60.55 109.56, 59.63 110.45, 57.91 111.86 C 56.19 113.27, 55.15 113.92, 53.39 114.87 C 51.63 115.82, 50.65 116.18, 49.12 116.60 C 47.58 117.02, 46.81 117.08, 45.72 116.99 C 44.64 116.89, 44.20 116.69, 43.69 116.13 C 43.18 115.56, 43.09 115.15, 43.18 114.19 C 43.28 113.23, 43.51 112.59, 44.16 111.32 C 44.82 110.05, 45.31 109.26, 46.46 107.84 C 47.61 106.41, 48.38 105.59, 49.92 104.20 C 51.46 102.82, 52.41 102.09, 54.17 100.93 C 55.93 99.77, 56.94 99.23, 58.73 98.42 C 60.52 97.61, 61.49 97.28, 63.13 96.88 C 64.77 96.49, 65.59 96.40, 66.94 96.44 C 68.29 96.49, 68.90 96.64, 69.87 97.10 C 70.83 97.56, 71.20 97.93, 71.77 98.74 C 72.34 99.55, 72.49 100.11, 72.72 101.16 C 72.96 102.20, 72.94 102.90, 72.95 103.96 C 72.95 105.01, 72.83 105.64, 72.77 106.43 C 72.70 107.21, 72.64 107.61, 72.63 107.86 C 72.62 108.11, 72.63 108.11, 72.72 107.69 C 72.81 107.26, 72.88 106.78, 73.06 105.75 C 73.23 104.72, 73.33 103.88, 73.60 102.52 C 73.87 101.17, 74.01 100.28, 74.41 98.99 C 74.81 97.71, 75.06 97.05, 75.60 96.11 C 76.15 95.18, 76.46 94.82, 77.12 94.32 C 77.79 93.82, 78.15 93.74, 78.92 93.60 C 79.69 93.46, 80.11 93.56, 80.98 93.63 C 81.85 93.70, 82.41 93.87, 83.28 93.96 C 84.16 94.05, 84.65 94.09, 85.35 94.08 C 86.05 94.07, 86.49 94.02, 86.78 93.90 C 87.07 93.79, 87.07 93.65, 86.81 93.50 C 86.54 93.34, 86.12 93.26, 85.45 93.11 C 84.77 92.96, 84.32 92.86, 83.43 92.73 C 82.55 92.61, 81.97 92.51, 81.03 92.49 C 80.09 92.48, 79.61 92.44, 78.72 92.66 C 77.83 92.87, 77.38 92.99, 76.57 93.57 C 75.76 94.14, 75.37 94.54, 74.69 95.53 C 74.01 96.53, 73.69 97.22, 73.16 98.56 C 72.64 99.89, 72.37 100.80, 72.07 102.21 C 71.78 103.63, 71.69 104.52, 71.69 105.64 C 71.69 106.76, 71.81 107.31, 72.07 107.81 C 72.33 108.31, 72.63 108.37, 72.99 108.13 C 73.35 107.90, 73.63 107.47, 73.87 106.63 C 74.11 105.79, 74.19 105.10, 74.18 103.94 C 74.17 102.79, 74.14 102.04, 73.81 100.88 C 73.49 99.72, 73.27 99.09, 72.56 98.16 C 71.85 97.24, 71.39 96.81, 70.27 96.26 C 69.16 95.72, 68.46 95.53, 66.98 95.44 C 65.51 95.35, 64.63 95.44, 62.88 95.83 C 61.14 96.21, 60.14 96.55, 58.26 97.37 C 56.39 98.18, 55.35 98.73, 53.51 99.91 C 51.67 101.09, 50.69 101.83, 49.07 103.25 C 47.46 104.67, 46.64 105.51, 45.44 107.02 C 44.24 108.53, 43.71 109.37, 43.07 110.79 C 42.43 112.22, 42.23 112.98, 42.24 114.15 C 42.25 115.32, 42.45 115.89, 43.13 116.64 C 43.80 117.38, 44.36 117.68, 45.61 117.87 C 46.86 118.07, 47.72 118.02, 49.38 117.62 C 51.04 117.22, 52.07 116.85, 53.93 115.88 C 55.78 114.91, 56.86 114.23, 58.66 112.77 C 60.45 111.31, 61.41 110.39, 62.90 108.58 C 64.39 106.76, 65.10 105.72, 66.10 103.69 C 67.11 101.67, 67.49 100.56, 67.92 98.46 C 68.35 96.36, 68.40 95.26, 68.25 93.20 C 68.10 91.13, 67.83 90.07, 67.17 88.14 C 66.51 86.21, 65.98 85.25, 64.95 83.54 C 63.91 81.83, 63.26 80.97, 61.99 79.59 C 60.72 78.22, 59.99 77.57, 58.61 76.67 C 57.23 75.77, 56.45 75.40, 55.08 75.09 C 53.71 74.78, 52.99 74.78, 51.76 75.12 C 50.54 75.45, 49.96 75.80, 48.96 76.76 C 47.96 77.72, 47.50 78.40, 46.75 79.90 C 46.01 81.40, 45.71 82.34, 45.22 84.28 C 44.74 86.22, 44.57 87.35, 44.34 89.59 C 44.11 91.84, 44.07 93.10, 44.09 95.51 C 44.11 97.92, 44.20 99.24, 44.43 101.64 C 44.67 104.03, 44.86 105.33, 45.27 107.50 C 45.67 109.67, 45.94 110.81, 46.47 112.50 C 47.00 114.19, 47.33 114.98, 47.93 115.95 C 48.52 116.92, 48.88 117.25, 49.43 117.35 C 49.99 117.44, 50.27 117.24, 50.71 116.43 C 51.15 115.62, 51.32 114.93, 51.65 113.31 C 51.98 111.70, 52.11 110.57, 52.35 108.33 C 52.59 106.09, 52.67 104.68, 52.84 102.10 C 53.01 99.52, 53.08 98.03, 53.20 95.43 C 53.32 92.84, 53.38 91.44, 53.45 89.12 C 53.51 86.79, 53.54 85.60, 53.54 83.81 C 53.54 82.01, 53.51 81.29, 53.44 80.16 C 53.38 79.02, 53.35 78.55, 53.22 78.14 C 53.09 77.74, 52.93 77.73, 52.77 78.13" style="stroke: black; fill: black;"/><path d="M 106.85,73.99 C 107.06 73.91, 107.13 73.72, 107.49 73.36 C 107.85 73.00, 108.05 72.77, 108.63 72.18 C 109.21 71.60, 109.59 71.18, 110.40 70.44 C 111.22 69.71, 111.73 69.25, 112.68 68.50 C 113.64 67.74, 114.18 67.31, 115.17 66.66 C 116.16 66.01, 116.70 65.68, 117.63 65.24 C 118.56 64.79, 119.02 64.62, 119.80 64.45 C 120.58 64.29, 120.93 64.24, 121.54 64.42 C 122.14 64.60, 122.38 64.73, 122.83 65.35 C 123.27 65.97, 123.45 66.38, 123.76 67.50 C 124.08 68.62, 124.21 69.32, 124.40 70.94 C 124.59 72.55, 124.66 73.50, 124.72 75.57 C 124.78 77.64, 124.78 78.83, 124.70 81.27 C 124.62 83.70, 124.54 85.07, 124.32 87.75 C 124.11 90.44, 123.96 91.91, 123.60 94.67 C 123.25 97.43, 123.03 98.92, 122.53 101.56 C 122.04 104.20, 121.74 105.56, 121.11 107.87 C 120.49 110.18, 120.13 111.29, 119.40 113.11 C 118.67 114.92, 118.26 115.74, 117.46 116.94 C 116.66 118.15, 116.21 118.58, 115.40 119.12 C 114.59 119.66, 114.18 119.74, 113.41 119.67 C 112.64 119.60, 112.25 119.36, 111.56 118.77 C 110.86 118.18, 110.48 117.67, 109.94 116.70 C 109.41 115.74, 109.13 115.13, 108.88 113.95 C 108.63 112.78, 108.54 112.10, 108.69 110.84 C 108.84 109.58, 109.03 108.89, 109.63 107.64 C 110.23 106.40, 110.67 105.76, 111.69 104.62 C 112.72 103.47, 113.55 102.88, 114.76 101.91 C 115.97 100.94, 116.72 100.50, 117.76 99.77 C 118.80 99.04, 119.56 98.66, 119.96 98.29 C 120.36 97.91, 120.30 97.78, 119.76 97.91 C 119.22 98.03, 118.40 98.31, 117.24 98.91 C 116.09 99.51, 115.28 99.94, 113.99 100.93 C 112.70 101.91, 111.86 102.57, 110.78 103.82 C 109.71 105.06, 109.24 105.78, 108.60 107.15 C 107.95 108.53, 107.73 109.29, 107.56 110.70 C 107.38 112.11, 107.44 112.88, 107.71 114.20 C 107.98 115.52, 108.26 116.23, 108.90 117.30 C 109.55 118.38, 110.03 118.94, 110.92 119.58 C 111.81 120.22, 112.37 120.44, 113.36 120.49 C 114.34 120.54, 114.87 120.43, 115.85 119.83 C 116.83 119.23, 117.35 118.76, 118.25 117.49 C 119.16 116.23, 119.59 115.37, 120.37 113.51 C 121.16 111.65, 121.53 110.52, 122.19 108.17 C 122.86 105.83, 123.16 104.45, 123.69 101.79 C 124.21 99.12, 124.43 97.62, 124.80 94.83 C 125.18 92.04, 125.32 90.56, 125.55 87.86 C 125.79 85.15, 125.87 83.78, 125.96 81.31 C 126.05 78.85, 126.06 77.64, 126.00 75.53 C 125.94 73.43, 125.89 72.45, 125.66 70.78 C 125.44 69.10, 125.30 68.35, 124.88 67.15 C 124.47 65.94, 124.20 65.46, 123.59 64.74 C 122.97 64.03, 122.59 63.83, 121.80 63.57 C 121.01 63.32, 120.56 63.34, 119.63 63.47 C 118.71 63.60, 118.19 63.78, 117.17 64.21 C 116.15 64.65, 115.58 64.99, 114.52 65.64 C 113.46 66.28, 112.89 66.70, 111.88 67.46 C 110.87 68.21, 110.31 68.64, 109.47 69.41 C 108.62 70.18, 108.21 70.62, 107.65 71.30 C 107.10 71.98, 106.93 72.31, 106.69 72.81 C 106.45 73.31, 106.43 73.55, 106.47 73.79 C 106.50 74.02, 106.65 74.08, 106.85 73.99" style="stroke: black; fill: black;"/><path d="M 155.64,72.09 C 155.49 72.28, 155.45 72.41, 155.31 73.06 C 155.17 73.72, 155.08 74.13, 154.93 75.37 C 154.79 76.62, 154.72 77.48, 154.59 79.30 C 154.45 81.13, 154.38 82.27, 154.25 84.51 C 154.12 86.75, 154.04 88.09, 153.94 90.51 C 153.84 92.94, 153.75 94.32, 153.73 96.64 C 153.71 98.95, 153.68 100.16, 153.84 102.10 C 153.99 104.03, 154.09 104.92, 154.50 106.30 C 154.91 107.69, 155.18 108.24, 155.91 109.00 C 156.63 109.76, 157.10 109.95, 158.11 110.10 C 159.12 110.24, 159.74 110.12, 160.95 109.73 C 162.17 109.33, 162.88 108.94, 164.19 108.13 C 165.51 107.32, 166.24 106.71, 167.53 105.67 C 168.82 104.63, 169.49 103.99, 170.63 102.94 C 171.77 101.90, 172.34 101.33, 173.23 100.46 C 174.13 99.59, 174.52 99.18, 175.11 98.59 C 175.70 98.00, 175.90 97.79, 176.19 97.51 C 176.47 97.23, 176.50 97.20, 176.54 97.20 C 176.58 97.20, 176.46 97.30, 176.38 97.51 C 176.31 97.72, 176.18 97.91, 176.17 98.27 C 176.15 98.64, 176.16 98.91, 176.32 99.32 C 176.48 99.74, 176.61 100.01, 176.95 100.36 C 177.28 100.71, 177.50 100.89, 178.00 101.08 C 178.49 101.27, 178.79 101.35, 179.41 101.31 C 180.04 101.27, 180.41 101.18, 181.11 100.89 C 181.80 100.60, 182.19 100.36, 182.89 99.85 C 183.58 99.34, 183.96 98.99, 184.57 98.36 C 185.19 97.73, 185.55 97.30, 185.96 96.71 C 186.37 96.12, 186.50 95.73, 186.62 95.41 C 186.75 95.08, 186.67 94.92, 186.57 95.09 C 186.47 95.26, 186.32 95.46, 186.13 96.25 C 185.93 97.03, 185.80 97.63, 185.58 99.02 C 185.37 100.40, 185.28 101.31, 185.07 103.16 C 184.87 105.02, 184.75 106.13, 184.55 108.31 C 184.34 110.49, 184.25 111.73, 184.05 114.07 C 183.85 116.40, 183.75 117.68, 183.53 119.98 C 183.31 122.27, 183.20 123.50, 182.95 125.54 C 182.69 127.59, 182.55 128.63, 182.26 130.22 C 181.96 131.80, 181.77 132.52, 181.46 133.49 C 181.16 134.45, 180.99 134.78, 180.73 135.04 C 180.47 135.30, 180.37 135.23, 180.16 134.80 C 179.95 134.38, 179.84 133.95, 179.68 132.93 C 179.53 131.91, 179.40 131.17, 179.39 129.69 C 179.39 128.21, 179.39 127.27, 179.66 125.52 C 179.93 123.77, 180.15 122.77, 180.74 120.93 C 181.34 119.09, 181.74 118.12, 182.62 116.32 C 183.51 114.53, 184.07 113.64, 185.17 111.96 C 186.28 110.29, 186.93 109.45, 188.15 107.95 C 189.36 106.45, 190.03 105.72, 191.25 104.47 C 192.46 103.22, 193.12 102.63, 194.24 101.70 C 195.36 100.77, 195.92 100.37, 196.84 99.83 C 197.76 99.28, 198.17 99.10, 198.84 98.96 C 199.50 98.82, 199.76 98.86, 200.15 99.14 C 200.55 99.41, 200.65 99.68, 200.82 100.35 C 200.99 101.02, 200.98 101.51, 200.98 102.48 C 200.98 103.45, 200.90 104.13, 200.82 105.19 C 200.74 106.26, 200.60 106.93, 200.58 107.80 C 200.55 108.67, 200.55 109.12, 200.72 109.54 C 200.88 109.96, 201.04 110.07, 201.41 109.90 C 201.79 109.73, 202.07 109.43, 202.61 108.69 C 203.14 107.96, 203.49 107.29, 204.10 106.22 C 204.72 105.15, 205.06 104.39, 205.69 103.36 C 206.33 102.33, 206.70 101.76, 207.28 101.07 C 207.85 100.38, 208.15 100.12, 208.57 99.92 C 208.99 99.73, 209.13 99.78, 209.38 100.09 C 209.63 100.40, 209.66 100.74, 209.82 101.48 C 209.97 102.23, 210.00 102.81, 210.16 103.83 C 210.32 104.85, 210.39 105.52, 210.61 106.57 C 210.82 107.61, 210.91 108.23, 211.25 109.07 C 211.58 109.91, 211.78 110.32, 212.28 110.76 C 212.79 111.20, 213.12 111.34, 213.79 111.27 C 214.46 111.20, 214.88 110.99, 215.63 110.41 C 216.38 109.83, 216.80 109.34, 217.56 108.37 C 218.32 107.40, 218.71 106.70, 219.43 105.56 C 220.15 104.42, 220.53 103.71, 221.16 102.66 C 221.78 101.62, 222.11 101.09, 222.54 100.34 C 222.97 99.58, 223.15 99.27, 223.31 98.88 C 223.47 98.50, 223.43 98.41, 223.34 98.41 C 223.24 98.41, 223.07 98.52, 222.82 98.87 C 222.58 99.21, 222.38 99.49, 222.10 100.13 C 221.81 100.78, 221.65 101.22, 221.40 102.09 C 221.15 102.96, 221.01 103.50, 220.83 104.46 C 220.66 105.42, 220.55 105.97, 220.52 106.89 C 220.49 107.82, 220.48 108.31, 220.66 109.08 C 220.85 109.84, 221.01 110.23, 221.45 110.72 C 221.89 111.21, 222.20 111.42, 222.86 111.54 C 223.52 111.66, 223.94 111.65, 224.73 111.31 C 225.53 110.97, 225.99 110.66, 226.83 109.84 C 227.68 109.02, 228.12 108.46, 228.95 107.20 C 229.78 105.94, 230.22 105.17, 230.98 103.54 C 231.74 101.91, 232.11 100.94, 232.73 99.07 C 233.36 97.20, 233.65 96.13, 234.10 94.19 C 234.54 92.26, 234.72 91.20, 234.96 89.39 C 235.20 87.57, 235.26 86.64, 235.29 85.13 C 235.31 83.62, 235.27 82.91, 235.10 81.84 C 234.92 80.77, 234.77 80.33, 234.40 79.80 C 234.04 79.27, 233.75 79.12, 233.26 79.18 C 232.77 79.25, 232.42 79.44, 231.95 80.14 C 231.47 80.85, 231.22 81.39, 230.87 82.70 C 230.53 84.00, 230.40 84.88, 230.22 86.66 C 230.04 88.44, 229.98 89.56, 229.98 91.59 C 229.98 93.63, 230.02 94.83, 230.22 96.82 C 230.41 98.81, 230.56 99.88, 230.95 101.53 C 231.33 103.19, 231.58 103.96, 232.14 105.10 C 232.71 106.23, 233.05 106.67, 233.76 107.20 C 234.48 107.73, 234.91 107.81, 235.70 107.75 C 236.48 107.70, 236.94 107.45, 237.71 106.93 C 238.48 106.42, 238.90 105.94, 239.54 105.19 C 240.18 104.44, 240.51 103.84, 240.92 103.19 C 241.33 102.54, 241.41 102.14, 241.59 101.93 C 241.78 101.73, 241.74 101.77, 241.83 102.16 C 241.93 102.54, 241.89 102.98, 242.07 103.85 C 242.25 104.73, 242.34 105.42, 242.73 106.52 C 243.12 107.63, 243.38 108.34, 244.02 109.38 C 244.65 110.43, 245.02 111.01, 245.91 111.75 C 246.79 112.49, 247.33 112.83, 248.43 113.07 C 249.52 113.31, 250.29 113.19, 251.38 112.94 C 252.48 112.69, 253.07 112.34, 253.88 111.84 C 254.70 111.33, 255.19 110.78, 255.45 110.41 C 255.71 110.05, 255.59 109.93, 255.18 110.03 C 254.77 110.13, 254.21 110.55, 253.39 110.91 C 252.58 111.27, 252.07 111.58, 251.12 111.81 C 250.17 112.03, 249.54 112.22, 248.64 112.04 C 247.74 111.87, 247.32 111.60, 246.62 110.94 C 245.92 110.28, 245.63 109.74, 245.13 108.76 C 244.62 107.78, 244.47 107.10, 244.11 106.04 C 243.74 104.99, 243.65 104.34, 243.32 103.49 C 242.99 102.63, 242.85 102.20, 242.45 101.78 C 242.05 101.36, 241.83 101.26, 241.32 101.39 C 240.82 101.52, 240.51 101.84, 239.94 102.42 C 239.38 103.01, 239.08 103.60, 238.50 104.32 C 237.91 105.05, 237.61 105.53, 237.03 106.06 C 236.45 106.59, 236.16 106.86, 235.60 106.97 C 235.04 107.08, 234.76 107.06, 234.25 106.60 C 233.73 106.15, 233.46 105.76, 233.02 104.70 C 232.58 103.63, 232.36 102.89, 232.05 101.30 C 231.74 99.70, 231.61 98.65, 231.46 96.71 C 231.31 94.77, 231.29 93.59, 231.32 91.60 C 231.34 89.62, 231.42 88.52, 231.60 86.80 C 231.77 85.08, 231.94 84.24, 232.19 83.01 C 232.44 81.77, 232.60 81.28, 232.84 80.61 C 233.08 79.94, 233.18 79.76, 233.38 79.66 C 233.57 79.56, 233.65 79.65, 233.81 80.11 C 233.96 80.57, 234.06 80.96, 234.14 81.96 C 234.21 82.96, 234.26 83.64, 234.20 85.10 C 234.13 86.55, 234.07 87.46, 233.81 89.23 C 233.55 90.99, 233.37 92.03, 232.91 93.91 C 232.46 95.80, 232.16 96.85, 231.54 98.67 C 230.92 100.48, 230.55 101.43, 229.82 103.00 C 229.08 104.56, 228.64 105.30, 227.87 106.49 C 227.09 107.68, 226.66 108.19, 225.94 108.96 C 225.22 109.73, 224.85 110.00, 224.26 110.34 C 223.67 110.69, 223.41 110.71, 222.98 110.68 C 222.56 110.64, 222.39 110.53, 222.13 110.17 C 221.87 109.81, 221.77 109.52, 221.69 108.88 C 221.61 108.24, 221.63 107.81, 221.71 106.97 C 221.80 106.14, 221.91 105.62, 222.11 104.73 C 222.32 103.83, 222.48 103.32, 222.74 102.50 C 223.00 101.68, 223.23 101.29, 223.42 100.62 C 223.62 99.95, 223.72 99.62, 223.73 99.16 C 223.74 98.70, 223.67 98.45, 223.48 98.32 C 223.28 98.18, 223.14 98.18, 222.78 98.46 C 222.41 98.75, 222.18 99.04, 221.65 99.74 C 221.11 100.45, 220.77 100.98, 220.10 102.00 C 219.42 103.02, 219.01 103.72, 218.28 104.83 C 217.56 105.93, 217.15 106.60, 216.46 107.55 C 215.78 108.49, 215.42 108.96, 214.86 109.55 C 214.30 110.14, 214.05 110.38, 213.65 110.51 C 213.25 110.64, 213.11 110.57, 212.85 110.21 C 212.58 109.86, 212.50 109.50, 212.31 108.72 C 212.13 107.95, 212.08 107.36, 211.92 106.33 C 211.77 105.30, 211.74 104.63, 211.54 103.59 C 211.34 102.55, 211.25 101.94, 210.92 101.14 C 210.58 100.33, 210.38 99.94, 209.87 99.56 C 209.35 99.17, 209.02 99.07, 208.35 99.22 C 207.67 99.36, 207.25 99.62, 206.49 100.30 C 205.73 100.97, 205.30 101.55, 204.54 102.58 C 203.79 103.61, 203.32 104.33, 202.71 105.43 C 202.10 106.53, 201.81 107.24, 201.47 108.07 C 201.14 108.90, 201.09 109.29, 201.06 109.58 C 201.02 109.88, 201.15 109.86, 201.30 109.53 C 201.46 109.20, 201.64 108.79, 201.82 107.94 C 202.00 107.10, 202.11 106.41, 202.21 105.30 C 202.30 104.20, 202.37 103.49, 202.29 102.43 C 202.20 101.37, 202.13 100.80, 201.78 100.01 C 201.44 99.22, 201.18 98.87, 200.56 98.50 C 199.95 98.12, 199.55 98.05, 198.71 98.14 C 197.87 98.24, 197.39 98.42, 196.36 98.97 C 195.33 99.51, 194.74 99.93, 193.56 100.87 C 192.38 101.81, 191.71 102.41, 190.45 103.68 C 189.19 104.95, 188.51 105.70, 187.26 107.23 C 186.01 108.76, 185.34 109.61, 184.21 111.32 C 183.07 113.04, 182.49 113.95, 181.56 115.80 C 180.64 117.64, 180.22 118.64, 179.58 120.54 C 178.94 122.45, 178.68 123.48, 178.37 125.31 C 178.06 127.14, 177.98 128.13, 178.01 129.70 C 178.03 131.28, 178.17 132.09, 178.50 133.20 C 178.82 134.30, 179.13 134.78, 179.64 135.23 C 180.14 135.69, 180.49 135.75, 181.03 135.46 C 181.56 135.18, 181.84 134.82, 182.30 133.81 C 182.76 132.80, 182.95 132.05, 183.31 130.43 C 183.67 128.81, 183.80 127.76, 184.09 125.69 C 184.37 123.63, 184.48 122.40, 184.72 120.10 C 184.97 117.79, 185.07 116.51, 185.29 114.18 C 185.51 111.85, 185.61 110.61, 185.84 108.44 C 186.07 106.27, 186.21 105.17, 186.44 103.33 C 186.67 101.48, 186.84 100.60, 187.00 99.21 C 187.17 97.82, 187.27 97.23, 187.26 96.38 C 187.26 95.54, 187.20 95.27, 186.98 94.98 C 186.75 94.68, 186.53 94.72, 186.14 94.91 C 185.74 95.10, 185.49 95.40, 184.99 95.91 C 184.49 96.42, 184.22 96.86, 183.64 97.45 C 183.07 98.03, 182.72 98.35, 182.12 98.82 C 181.51 99.28, 181.16 99.48, 180.60 99.75 C 180.04 100.02, 179.75 100.10, 179.30 100.17 C 178.86 100.23, 178.67 100.19, 178.37 100.08 C 178.07 99.98, 177.96 99.86, 177.79 99.63 C 177.63 99.41, 177.61 99.24, 177.54 98.94 C 177.48 98.64, 177.52 98.46, 177.44 98.15 C 177.37 97.84, 177.32 97.63, 177.16 97.37 C 176.99 97.11, 176.91 96.93, 176.64 96.84 C 176.37 96.76, 176.23 96.73, 175.80 96.94 C 175.37 97.15, 175.14 97.34, 174.47 97.88 C 173.81 98.42, 173.41 98.82, 172.48 99.65 C 171.55 100.48, 170.97 101.04, 169.82 102.04 C 168.67 103.04, 167.99 103.66, 166.73 104.66 C 165.46 105.66, 164.73 106.24, 163.50 107.04 C 162.27 107.84, 161.62 108.22, 160.56 108.67 C 159.50 109.11, 159.01 109.29, 158.20 109.25 C 157.38 109.22, 157.04 109.12, 156.48 108.48 C 155.92 107.84, 155.72 107.35, 155.41 106.06 C 155.11 104.77, 155.03 103.91, 154.94 102.03 C 154.84 100.15, 154.89 98.95, 154.94 96.66 C 155.00 94.37, 155.09 92.99, 155.22 90.58 C 155.35 88.16, 155.44 86.83, 155.60 84.60 C 155.75 82.36, 155.85 81.23, 155.98 79.41 C 156.11 77.58, 156.20 76.73, 156.25 75.48 C 156.29 74.22, 156.27 73.80, 156.22 73.13 C 156.18 72.46, 156.14 72.32, 156.03 72.12 C 155.91 71.91, 155.78 71.90, 155.64 72.09" style="stroke: black; fill: black;"/></svg>