<?xml version="1.0" encoding="UTF-8" standalone="no"?>
<!-- Created with Inkscape (http://www.inkscape.org/) -->

<svg
   width="138.3912mm"
   height="20.90007mm"
   viewBox="0 0 138.39121 20.90007"
   version="1.1"
   id="svg1"
   xml:space="preserve"
   inkscape:version="1.4 (e7c3feb1, 2024-10-09)"
   sodipodi:docname="drj.svg"
   xmlns:inkscape="http://www.inkscape.org/namespaces/inkscape"
   xmlns:sodipodi="http://sodipodi.sourceforge.net/DTD/sodipodi-0.dtd"
   xmlns="http://www.w3.org/2000/svg"
   xmlns:svg="http://www.w3.org/2000/svg"><sodipodi:namedview
     id="namedview1"
     pagecolor="#ffffff"
     bordercolor="#000000"
     borderopacity="0.25"
     inkscape:showpageshadow="2"
     inkscape:pageopacity="0.0"
     inkscape:pagecheckerboard="0"
     inkscape:deskcolor="#d1d1d1"
     inkscape:document-units="mm"
     inkscape:zoom="1.2947394"
     inkscape:cx="289.2474"
     inkscape:cy="88.048606"
     inkscape:window-width="1512"
     inkscape:window-height="857"
     inkscape:window-x="0"
     inkscape:window-y="38"
     inkscape:window-maximized="1"
     inkscape:current-layer="layer1" /><defs
     id="defs1" /><g
     inkscape:label="Layer 1"
     inkscape:groupmode="layer"
     id="layer1"
     transform="translate(-35.460766,-128.55423)"><path
       d="m 35.460766,128.72346 v 9.75907 h 3.70901 c 3.04618,0 4.86543,-1.97438 4.86543,-4.86543 v -0.0141 c 0,-2.90516 -1.81925,-4.87954 -4.86543,-4.87954 z m 1.5654,1.48079 h 2.14361 c 2.04489,0 3.28593,1.39616 3.28593,3.39875 v 0.0141 c 0,2.00258 -1.24104,3.38465 -3.28593,3.38465 h -2.14361 z m 14.89204,4.76671 c 1.43847,-0.42308 2.20002,-1.48078 2.20002,-2.96157 v -0.0141 c 0,-2.01669 -1.33976,-3.27183 -3.77952,-3.27183 h -3.87825 v 9.75907 h 1.5654 v -3.30003 h 2.31285 0.0846 l 2.17181,3.30003 h 1.76284 z m -1.5795,-4.82312 c 1.39616,0 2.21412,0.63462 2.21412,1.84745 v 0.0141 c 0,1.19873 -0.81796,1.80515 -2.21412,1.80515 h -2.31285 v -3.6667 z m 11.76081,-1.42438 v 1.48079 h 3.159 v 4.78081 c 0,1.39617 -0.64872,2.14361 -1.93207,2.14361 h -0.0141 c -1.0859,0 -1.70642,-0.43718 -2.1013,-1.22693 l -0.88847,1.26924 c 0.64872,1.00129 1.59361,1.48078 2.98977,1.48078 h 0.0141 c 2.28464,0 3.51158,-1.33975 3.51158,-3.6667 v -6.2616 z m 7.55862,0 v 9.75907 h 6.50134 v -1.46668 h -4.93594 v -2.65131 h 4.42825 v -1.48078 h -4.42825 v -2.69362 h 4.93594 v -1.46668 z m 14.51126,6.2475 c 1.43847,-0.42308 2.20002,-1.48078 2.20002,-2.96157 v -0.0141 c 0,-2.01669 -1.33976,-3.27183 -3.77952,-3.27183 h -3.87825 v 9.75907 h 1.5654 v -3.30003 h 2.31285 0.0846 l 2.17182,3.30003 h 1.76283 z m -1.57951,-4.82312 c 1.39617,0 2.21413,0.63462 2.21413,1.84745 v 0.0141 c 0,1.19873 -0.81796,1.80515 -2.21413,1.80515 h -2.31284 v -3.6667 z m 6.35989,-1.42438 v 9.75907 h 6.50135 v -1.46668 h -4.93595 v -2.65131 h 4.42825 v -1.48078 h -4.42825 v -2.69362 h 4.93595 v -1.46668 z m 10.60482,0 h -1.5513 v 9.75907 h 1.52309 v -7.16417 l 2.876944,5.14749 h 0.97309 l 2.86285,-5.14749 v 7.16417 h 1.53719 v -9.75907 h -1.5654 l -3.32823,5.78211 z m 11.958664,0 h -1.72053 l 3.94876,6.19109 v 3.56798 h 1.5795 v -3.56798 l 3.94875,-6.19109 h -1.73463 l -3.00387,4.78082 z m 14.24289,0 v 9.75907 h 6.92441 v -1.50899 h -5.35901 v -8.25008 z m 8.32016,0 h -1.72053 l 3.94876,6.19109 v 3.56798 h 1.5795 v -3.56798 l 3.94875,-6.19109 h -1.73463 l -3.00387,4.78082 z m 16.64076,7.13597 -5.44363,-7.13597 h -1.43848 v 9.75907 h 1.52309 v -7.13596 l 5.44363,7.13596 h 1.43848 v -9.75907 h -1.52309 z m 12.25482,-6.19109 c -0.91667,-0.78975 -2.0731,-1.11411 -3.30003,-1.11411 h -0.0141 c -3.06029,0 -4.97826,2.059 -4.97826,5.03466 v 0.0141 c 0,2.98977 1.91797,5.04876 4.97826,5.04876 h 0.0141 c 1.31156,0 2.42566,-0.35256 3.30003,-1.11411 l -0.86026,-1.18463 c -0.64873,0.53591 -1.45258,0.83206 -2.43977,0.83206 h -0.0141 c -2.059,0 -3.39875,-1.49488 -3.41286,-3.58208 v -0.0141 c 0,-2.05899 1.33976,-3.56798 3.41286,-3.56798 h 0.0141 c 0.91667,0 1.76284,0.26795 2.43977,0.83206 z m 3.80731,3.20132 v -4.1462 h -1.5654 v 9.75907 h 1.5654 v -4.13209 h 5.27441 v 4.13209 h 1.5654 v -9.75907 h -1.5654 v 4.1462 z"
       id="text1"
       style="font-size:14.1027px;font-family:'FONTSPRING DEMO - Organetto';-inkscape-font-specification:'FONTSPRING DEMO - Organetto';letter-spacing:0.775229px;opacity:0.989726;stroke-width:0.813617;stroke-linecap:round"
       aria-label="Dr Jeremy Lynch" /><path
       d="m 38.580816,146.07425 c -0.3449,-0.29715 -0.78001,-0.41919 -1.24165,-0.41919 h -0.005 c -1.15145,0 -1.8731,0.7747 -1.8731,1.89431 v 0.005 c 0,1.12492 0.72165,1.89962 1.8731,1.89962 h 0.005 c 0.49347,0 0.91267,-0.13265 1.24165,-0.41919 l -0.32368,-0.44572 c -0.24408,0.20164 -0.54654,0.31307 -0.91797,0.31307 h -0.005 c -0.77471,0 -1.2788,-0.56246 -1.28411,-1.34778 v -0.005 c 0,-0.7747 0.50409,-1.34247 1.28411,-1.34247 h 0.005 c 0.3449,0 0.66327,0.10082 0.91797,0.31307 z m 2.21269,-0.41919 c -1.15145,0 -1.87309,0.78001 -1.87309,1.89431 v 0.005 c 0,1.11961 0.72164,1.89962 1.87309,1.89962 h 0.005 c 1.15145,0 1.8784,-0.78001 1.8784,-1.89962 v -0.005 c 0,-1.1143 -0.72695,-1.89431 -1.8784,-1.89431 z m 0,3.2474 c -0.78001,0 -1.2841,-0.54654 -1.2841,-1.34778 v -0.005 c 0,-0.79593 0.50409,-1.34247 1.2841,-1.34247 h 0.005 c 0.78532,0 1.28941,0.54654 1.28941,1.34247 v 0.005 c 0,0.80124 -0.50409,1.34778 -1.28941,1.34778 z m 5.09927,-0.49879 -2.0482,-2.68494 h -0.54123 v 3.6719 h 0.57307 v -2.68494 l 2.04819,2.68494 h 0.54124 v -3.6719 h -0.57307 z m 4.05925,-2.1384 c -0.2547,-0.38205 -0.71104,-0.61021 -1.33717,-0.61021 h -0.005 c -0.87552,0 -1.43268,0.36612 -1.43268,1.0294 0,0.4298 0.22287,0.80655 0.83308,0.95512 l 0.86491,0.21755 c 0.37674,0.10082 0.52532,0.28654 0.52532,0.54654 0,0.31307 -0.27593,0.52532 -0.79594,0.52532 h -0.005 c -0.49348,0 -0.85961,-0.18572 -1.07717,-0.65267 l -0.48817,0.35021 c 0.24939,0.53593 0.79063,0.82777 1.55472,0.82777 h 0.005 c 0.849,0 1.40615,-0.39796 1.40615,-1.03471 0.005,-0.46694 -0.18572,-0.92328 -0.87553,-1.08247 l -0.79062,-0.18571 c -0.44042,-0.10613 -0.55715,-0.28123 -0.55715,-0.48817 0,-0.29185 0.29714,-0.47756 0.81185,-0.47756 h 0.005 c 0.48286,0 0.80123,0.18041 1.00287,0.50939 z m 3.1731,1.48574 c 0,0.84899 -0.48817,1.13022 -1.00287,1.13022 h -0.005 c -0.5147,0 -1.00287,-0.28123 -1.00287,-1.13022 v -2.03228 h -0.5943 v 2.03228 c 0,1.20451 0.70573,1.70329 1.59717,1.70329 h 0.005 c 0.89144,0 1.59717,-0.49878 1.59717,-1.70329 v -2.03228 h -0.5943 z m 1.34247,-2.03228 v 3.6719 h 2.60535 v -0.56777 h -2.01636 v -3.10413 z m 2.27636,0 v 0.56777 h 1.16737 v 3.10413 h 0.5943 v -3.10413 h 1.16736 v -0.56777 z m 4.96131,0 h -0.63675 l -1.54941,3.6719 h 0.62613 l 0.35021,-0.85961 h 1.78289 l 0.35021,0.85961 h 0.62613 z m 0.37674,2.28698 h -1.39023 l 0.69512,-1.67146 z m 4.28742,0.39796 -2.0482,-2.68494 h -0.54123 v 3.6719 h 0.57307 v -2.68494 l 2.04819,2.68494 h 0.54124 v -3.6719 h -0.57307 z m 1.12491,-2.68494 v 0.56777 h 1.16737 v 3.10413 h 0.59429 v -3.10413 h 1.16737 v -0.56777 z m 5.4654,3.6719 v -3.6719 h -0.58899 v 3.6719 z m 3.4278,-0.98696 -2.04819,-2.68494 h -0.54124 v 3.6719 h 0.57307 v -2.68494 l 2.0482,2.68494 h 0.54123 v -3.6719 h -0.57307 z m 1.12492,-2.68494 v 0.56777 h 1.16736 v 3.10413 h 0.5943 v -3.10413 h 1.16737 v -0.56777 z m 3.48087,0 v 3.6719 h 2.44616 v -0.55185 h -1.85717 v -0.99757 h 1.66615 v -0.55715 h -1.66615 v -1.01348 h 1.85717 v -0.55185 z m 5.16825,2.35065 c 0.54123,-0.15918 0.82777,-0.55715 0.82777,-1.1143 v -0.005 c 0,-0.75879 -0.5041,-1.23104 -1.42207,-1.23104 h -1.45921 v 3.6719 h 0.58899 v -1.24165 h 0.87022 0.0318 l 0.81716,1.24165 h 0.66327 z m -0.5943,-1.81472 c 0.52532,0 0.83307,0.23878 0.83307,0.69511 v 0.005 c 0,0.45103 -0.30776,0.67919 -0.83307,0.67919 h -0.87022 v -1.37961 z m 2.41963,-0.53593 h -0.62613 l 1.46451,3.6719 h 0.63144 l 1.46982,-3.6719 h -0.62613 l -1.15675,2.94495 z m 3.47027,0 v 3.6719 h 2.44616 v -0.55185 h -1.85718 v -0.99757 h 1.66615 v -0.55715 h -1.66615 v -1.01348 h 1.85718 v -0.55185 z m 5.70417,2.68494 -2.0482,-2.68494 h -0.54123 v 3.6719 h 0.57307 v -2.68494 l 2.0482,2.68494 h 0.54123 v -3.6719 h -0.57307 z m 1.12492,-2.68494 v 0.56777 h 1.16736 v 3.10413 h 0.594304 v -3.10413 h 1.16736 v -0.56777 z m 4.069854,3.6719 v -3.6719 h -0.58899 v 3.6719 z m 2.49922,-3.73557 c -1.15145,0 -1.87309,0.78001 -1.87309,1.89431 v 0.005 c 0,1.11961 0.72164,1.89962 1.87309,1.89962 h 0.005 c 1.15144,0 1.8784,-0.78001 1.8784,-1.89962 v -0.005 c 0,-1.1143 -0.72696,-1.89431 -1.8784,-1.89431 z m 0,3.2474 c -0.78001,0 -1.2841,-0.54654 -1.2841,-1.34778 v -0.005 c 0,-0.79593 0.50409,-1.34247 1.2841,-1.34247 h 0.005 c 0.78532,0 1.28941,0.54654 1.28941,1.34247 v 0.005 c 0,0.80124 -0.50409,1.34778 -1.28941,1.34778 z m 5.09926,-0.49879 -2.04819,-2.68494 h -0.54124 v 3.6719 h 0.57308 v -2.68494 l 2.0482,2.68494 h 0.54123 v -3.6719 h -0.57308 z m 3.28454,-2.68494 h -0.63674 l -1.54941,3.6719 h 0.62613 l 0.35022,-0.85961 h 1.78287 l 0.35021,0.85961 h 0.62615 z m 0.37674,2.28698 h -1.39022 l 0.69511,-1.67146 z m 1.69799,-2.28698 v 3.6719 h 2.60535 v -0.56777 h -2.01636 v -3.10413 z m 7.13686,2.68494 -2.0482,-2.68494 h -0.54123 v 3.6719 h 0.57307 v -2.68494 l 2.0482,2.68494 h 0.54123 v -3.6719 h -0.57307 z m 1.41145,-2.68494 v 3.6719 h 2.44616 v -0.55185 h -1.85717 v -0.99757 h 1.66615 v -0.55715 h -1.66615 v -1.01348 h 1.85717 v -0.55185 z m 5.62989,2.03228 c 0,0.84899 -0.48818,1.13022 -1.00288,1.13022 h -0.005 c -0.51471,0 -1.00288,-0.28123 -1.00288,-1.13022 v -2.03228 h -0.59429 v 2.03228 c 0,1.20451 0.70572,1.70329 1.59717,1.70329 h 0.005 c 0.89145,0 1.59717,-0.49878 1.59717,-1.70329 v -2.03228 h -0.59429 z m 3.39597,0.31837 c 0.54123,-0.15918 0.82777,-0.55715 0.82777,-1.1143 v -0.005 c 0,-0.75879 -0.50409,-1.23104 -1.42207,-1.23104 h -1.45921 v 3.6719 h 0.58899 v -1.24165 h 0.87022 0.0318 l 0.81716,1.24165 h 0.66327 z m -0.5943,-1.81472 c 0.52532,0 0.83308,0.23878 0.83308,0.69511 v 0.005 c 0,0.45103 -0.30776,0.67919 -0.83308,0.67919 h -0.87022 v -1.37961 z m 3.7621,-0.5996 c -1.15145,0 -1.87309,0.78001 -1.87309,1.89431 v 0.005 c 0,1.11961 0.72164,1.89962 1.87309,1.89962 h 0.005 c 1.15145,0 1.8784,-0.78001 1.8784,-1.89962 v -0.005 c 0,-1.1143 -0.72695,-1.89431 -1.8784,-1.89431 z m 0,3.2474 c -0.78001,0 -1.2841,-0.54654 -1.2841,-1.34778 v -0.005 c 0,-0.79593 0.50409,-1.34247 1.2841,-1.34247 h 0.005 c 0.78532,0 1.28941,0.54654 1.28941,1.34247 v 0.005 c 0,0.80124 -0.50409,1.34778 -1.28941,1.34778 z m 4.56334,-0.83308 c 0.54123,-0.15918 0.82777,-0.55715 0.82777,-1.1143 v -0.005 c 0,-0.75879 -0.50409,-1.23104 -1.42207,-1.23104 h -1.45921 v 3.6719 h 0.58899 v -1.24165 h 0.87022 0.0318 l 0.81716,1.24165 h 0.66327 z m -0.5943,-1.81472 c 0.52532,0 0.83308,0.23878 0.83308,0.69511 v 0.005 c 0,0.45103 -0.30776,0.67919 -0.83308,0.67919 h -0.87022 v -1.37961 z m 3.94782,-0.53593 h -0.63674 l -1.54942,3.6719 h 0.62614 l 0.35021,-0.85961 h 1.78288 l 0.35021,0.85961 h 0.62614 z m 0.37674,2.28698 h -1.39021 l 0.69511,-1.67146 z m 1.698,-2.28698 v 3.6719 h 1.39554 c 1.14614,0 1.83064,-0.74287 1.83064,-1.83064 v -0.005 c 0,-1.09308 -0.68451,-1.83595 -1.83064,-1.83595 z m 0.58898,0.55715 h 0.80655 c 0.7694,0 1.23634,0.52532 1.23634,1.2788 v 0.005 c 0,0.75348 -0.46693,1.27349 -1.23634,1.27349 h -0.80655 z m 3.84701,3.11475 v -3.6719 h -0.58899 v 3.6719 z m 2.49923,-3.73557 c -1.15145,0 -1.8731,0.78001 -1.8731,1.89431 v 0.005 c 0,1.11961 0.72165,1.89962 1.8731,1.89962 h 0.005 c 1.15145,0 1.8784,-0.78001 1.8784,-1.89962 v -0.005 c 0,-1.1143 -0.72695,-1.89431 -1.8784,-1.89431 z m 0,3.2474 c -0.78002,0 -1.28411,-0.54654 -1.28411,-1.34778 v -0.005 c 0,-0.79593 0.50409,-1.34247 1.28411,-1.34247 h 0.005 c 0.78532,0 1.28941,0.54654 1.28941,1.34247 v 0.005 c 0,0.80124 -0.50409,1.34778 -1.28941,1.34778 z m 2.50983,-3.18373 v 3.6719 h 2.60535 v -0.56777 h -2.01636 v -3.10413 z m 4.69067,-0.0637 c -1.15145,0 -1.87308,0.78001 -1.87308,1.89431 v 0.005 c 0,1.11961 0.72164,1.89962 1.87308,1.89962 h 0.005 c 1.15145,0 1.8784,-0.78001 1.8784,-1.89962 v -0.005 c 0,-1.1143 -0.72695,-1.89431 -1.8784,-1.89431 z m 0,3.2474 c -0.78001,0 -1.28409,-0.54654 -1.28409,-1.34778 v -0.005 c 0,-0.79593 0.50408,-1.34247 1.28409,-1.34247 h 0.005 c 0.78533,0 1.28941,0.54654 1.28941,1.34247 v 0.005 c 0,0.80124 -0.50408,1.34778 -1.28941,1.34778 z m 5.52907,-2.82821 c -0.34491,-0.29715 -0.80124,-0.41919 -1.30001,-0.41919 h -0.005 c -1.20451,0 -1.92616,0.78532 -1.92616,1.89431 v 0.005 c 0,1.11961 0.71103,1.89962 1.82534,1.89962 h 0.005 c 0.52001,0 0.90736,-0.1751 1.10369,-0.50409 l 0.0265,0.44042 h 0.37144 v -1.87275 h -1.34248 v 0.48286 h 0.849 v 0.32368 c -0.0584,0.35021 -0.4298,0.57838 -0.96044,0.57838 h -0.005 c -0.77471,0 -1.2841,-0.57307 -1.2841,-1.34778 v -0.005 c 0,-0.78001 0.50939,-1.34247 1.33716,-1.34247 h 0.005 c 0.38204,0 0.72164,0.10082 0.97634,0.31307 z m 1.37962,3.31638 v -3.6719 h -0.58899 v 3.6719 z m 3.48616,-3.12536 c -0.25469,-0.38205 -0.71103,-0.61021 -1.33716,-0.61021 h -0.005 c -0.87552,0 -1.43267,0.36612 -1.43267,1.0294 0,0.4298 0.22286,0.80655 0.83307,0.95512 l 0.86491,0.21755 c 0.37674,0.10082 0.52532,0.28654 0.52532,0.54654 0,0.31307 -0.27592,0.52532 -0.79593,0.52532 h -0.005 c -0.49348,0 -0.85961,-0.18572 -1.07716,-0.65267 l -0.48817,0.35021 c 0.24939,0.53593 0.79062,0.82777 1.55472,0.82777 h 0.005 c 0.849,0 1.40615,-0.39796 1.40615,-1.03471 0.005,-0.46694 -0.18572,-0.92328 -0.87552,-1.08247 l -0.79062,-0.18571 c -0.44042,-0.10613 -0.55716,-0.28123 -0.55716,-0.48817 0,-0.29185 0.29715,-0.47756 0.81185,-0.47756 h 0.005 c 0.48287,0 0.80124,0.18041 1.00288,0.50939 z m 0.34492,-0.54654 v 0.56777 h 1.16737 v 3.10413 h 0.59429 v -3.10413 h 1.16738 v -0.56777 z"
       id="text2"
       style="font-size:5.30621px;font-family:'FONTSPRING DEMO - Organetto';-inkscape-font-specification:'FONTSPRING DEMO - Organetto';opacity:0.989726;stroke-width:0.306127;stroke-linecap:round"
       aria-label="CONSULTANT INTERVENTIONAL NEURORADIOLOGIST" /></g></svg>
