<?xml version="1.0" encoding="UTF-8" standalone="no"?>
<!-- Created with Inkscape (http://www.inkscape.org/) -->

<svg
   width="200.56839mm"
   height="20.363523mm"
   viewBox="0 0 200.5684 20.363523"
   version="1.1"
   id="svg1"
   xml:space="preserve"
   inkscape:version="1.4.2 (ebf0e940d0, 2025-05-08)"
   sodipodi:docname="londonneuroclinic.svg"
   xmlns:inkscape="http://www.inkscape.org/namespaces/inkscape"
   xmlns:sodipodi="http://sodipodi.sourceforge.net/DTD/sodipodi-0.dtd"
   xmlns="http://www.w3.org/2000/svg"
   xmlns:svg="http://www.w3.org/2000/svg"><sodipodi:namedview
     id="namedview1"
     pagecolor="#ffffff"
     bordercolor="#000000"
     borderopacity="0.25"
     inkscape:showpageshadow="2"
     inkscape:pageopacity="0.0"
     inkscape:pagecheckerboard="0"
     inkscape:deskcolor="#d1d1d1"
     inkscape:document-units="mm"
     inkscape:zoom="0.6473697"
     inkscape:cx="280.3653"
     inkscape:cy="-227.84508"
     inkscape:window-width="1920"
     inkscape:window-height="1008"
     inkscape:window-x="0"
     inkscape:window-y="0"
     inkscape:window-maximized="1"
     inkscape:current-layer="layer1" /><defs
     id="defs1"><clipPath
       clipPathUnits="userSpaceOnUse"
       id="clipPath4"><rect
         style="fill:#000000;stroke-width:0.284001"
         id="rect5"
         width="88.280312"
         height="102.17628"
         x="245.53522"
         y="78.6922" /></clipPath></defs><g
     inkscape:label="Layer 1"
     inkscape:groupmode="layer"
     id="layer1"
     transform="translate(-37.344868,-128.90241)"><text
       xml:space="preserve"
       style="font-weight:bold;font-size:4.23333px;font-family:'Adwaita Sans';-inkscape-font-specification:'Adwaita Sans Bold';text-align:center;writing-mode:lr-tb;direction:ltr;text-anchor:middle;fill:#ffffff;stroke-width:0.284001"
       x="48.754681"
       y="174.79395"
       id="text3"><tspan
         sodipodi:role="line"
         id="tspan1"
         style="stroke-width:0.284"
         x="48.754681"
         y="174.79395" /></text><path
       style="font-weight:bold;font-size:7.22756px;font-family:'Adwaita Sans';-inkscape-font-specification:'Adwaita Sans Bold';text-align:center;text-anchor:middle;stroke-width:0.754078"
       d="m 63.898898,135.36114 v -1.44897 h 6.646534 v 1.44897 h -2.475299 v 6.72884 h -1.690447 v -6.72884 z m 9.083414,3.50712 v 3.22172 h -1.619097 v -8.17781 h 1.619097 v 3.89133 h -0.301867 q 0.274423,-0.76839 0.784852,-1.19648 0.510428,-0.4336 1.300766,-0.4336 0.620197,0 1.075741,0.26895 0.455542,0.26343 0.702523,0.77388 0.25247,0.51041 0.25247,1.24587 v 3.62786 h -1.613609 v -3.33149 q 0,-0.58177 -0.279914,-0.88364 -0.274422,-0.30734 -0.78485,-0.30734 -0.334796,0 -0.592754,0.13716 -0.257959,0.13717 -0.400658,0.42809 -0.142706,0.28541 -0.142706,0.73545 z m 7.607016,3.35345 q -0.878156,0 -1.531282,-0.38418 -0.647641,-0.38968 -1.009878,-1.07574 -0.356752,-0.68606 -0.356752,-1.56421 0,-0.88913 0.36224,-1.56971 0.367727,-0.68606 1.009878,-1.07573 0.64215,-0.3897 1.470909,-0.3897 0.64215,0 1.163555,0.21956 0.521405,0.21404 0.90011,0.62018 0.378702,0.40067 0.581776,0.94952 0.208561,0.54884 0.208561,1.21294 v 0.43359 h -5.120739 v -1.03184 h 4.341378 l -0.729967,0.24699 q 0,-0.43908 -0.159165,-0.75741 -0.159166,-0.31834 -0.455542,-0.48846 -0.29089,-0.17563 -0.697036,-0.17563 -0.40066,0 -0.691547,0.17563 -0.290889,0.17012 -0.450055,0.48846 -0.159165,0.31833 -0.159165,0.75741 v 0.70252 q 0,0.45006 0.159165,0.79034 0.164654,0.3348 0.472008,0.5214 0.307355,0.18112 0.740944,0.18112 0.318331,0 0.559824,-0.0878 0.24698,-0.0933 0.411635,-0.25796 0.170141,-0.17014 0.241491,-0.39517 h 1.4764 q -0.104283,0.57629 -0.488476,1.01537 -0.384193,0.43907 -0.965969,0.69154 -0.581778,0.24699 -1.284301,0.24699 z m 6.114152,-0.13173 v -8.17781 h 1.690449 v 6.72887 h 3.715692 v 1.44894 z m 8.90778,0.13173 q -0.872666,0 -1.53677,-0.3787 -0.664104,-0.3787 -1.03732,-1.05927 -0.367728,-0.68056 -0.367728,-1.58616 0,-0.91109 0.367728,-1.59166 0.373216,-0.68057 1.03732,-1.05927 0.664104,-0.38421 1.53677,-0.38421 0.883645,0 1.54226,0.38421 0.664104,0.3787 1.031833,1.05927 0.373214,0.68057 0.373214,1.59166 0,0.9056 -0.373214,1.58616 -0.367729,0.68057 -1.031833,1.05927 -0.658615,0.3787 -1.54226,0.3787 z m 0,-1.31173 q 0.39517,0 0.691548,-0.20309 0.296377,-0.20855 0.461032,-0.59275 0.164653,-0.38418 0.164653,-0.91656 0,-0.54336 -0.164653,-0.92755 -0.164655,-0.3842 -0.461032,-0.58728 -0.296378,-0.20855 -0.691548,-0.20855 -0.389679,0 -0.686057,0.20855 -0.296377,0.20308 -0.461032,0.58728 -0.164653,0.38419 -0.164653,0.92755 0,0.53787 0.164653,0.92205 0.164655,0.37871 0.461032,0.58726 0.296378,0.20309 0.686057,0.20309 z m 5.45555,-2.04172 v 3.22172 H 99.4477 v -5.79581 h 1.59166 v 1.50933 h -0.27442 q 0.27442,-0.76839 0.78485,-1.19648 0.51043,-0.4336 1.30077,-0.4336 0.62021,0 1.07575,0.26895 0.45555,0.26343 0.70253,0.77388 0.25247,0.51041 0.25247,1.24587 v 3.62786 h -1.61362 v -3.33149 q 0,-0.58177 -0.27991,-0.88364 -0.27443,-0.30734 -0.78486,-0.30734 -0.3348,0 -0.59275,0.13716 -0.25797,0.13717 -0.40067,0.42809 -0.1427,0.28541 -0.1427,0.73545 z m 7.21736,3.34248 q -0.75741,0 -1.32272,-0.3787 -0.56531,-0.3787 -0.87816,-1.05928 -0.30736,-0.68056 -0.30736,-1.58616 0,-0.89462 0.31285,-1.5697 0.31833,-0.68057 0.87816,-1.05927 0.56531,-0.38421 1.30625,-0.38421 0.37871,0 0.69704,0.10429 0.31833,0.0988 0.5708,0.30185 0.25247,0.20309 0.43908,0.51594 h 0.005 v -3.18333 h 1.6136 v 8.17781 h -1.59165 v -0.88912 h -0.006 q -0.17015,0.3348 -0.4281,0.56531 -0.25247,0.22503 -0.58178,0.33479 -0.32931,0.10979 -0.70801,0.10979 z m 0.41712,-1.31723 q 0.41164,0 0.7135,-0.20857 0.30736,-0.21405 0.4775,-0.59823 0.17014,-0.3842 0.17014,-0.90011 0,-0.5214 -0.17014,-0.90011 -0.17014,-0.3842 -0.4775,-0.59276 -0.30186,-0.21405 -0.7135,-0.21405 -0.38968,0 -0.68057,0.20307 -0.29089,0.20308 -0.45554,0.58177 -0.15917,0.37872 -0.15917,0.92208 0,0.54336 0.15917,0.92754 0.16465,0.37871 0.45554,0.5818 0.29089,0.19757 0.68057,0.19757 z m 6.73435,1.3282 q -0.87266,0 -1.53677,-0.3787 -0.6641,-0.3787 -1.03732,-1.05927 -0.36773,-0.68056 -0.36773,-1.58616 0,-0.91109 0.36773,-1.59166 0.37322,-0.68057 1.03732,-1.05927 0.66411,-0.38421 1.53677,-0.38421 0.88365,0 1.54226,0.38421 0.66411,0.3787 1.03183,1.05927 0.37322,0.68057 0.37322,1.59166 0,0.9056 -0.37322,1.58616 -0.36772,0.68057 -1.03183,1.05927 -0.65861,0.3787 -1.54226,0.3787 z m 0,-1.31173 q 0.39517,0 0.69155,-0.20309 0.29638,-0.20855 0.46103,-0.59275 0.16466,-0.38418 0.16466,-0.91656 0,-0.54336 -0.16466,-0.92755 -0.16465,-0.3842 -0.46103,-0.58728 -0.29638,-0.20855 -0.69155,-0.20855 -0.38968,0 -0.68605,0.20855 -0.29638,0.20308 -0.46104,0.58728 -0.16465,0.38419 -0.16465,0.92755 0,0.53787 0.16465,0.92205 0.16466,0.37871 0.46104,0.58726 0.29637,0.20309 0.68605,0.20309 z m 5.45554,-2.04172 v 3.22172 h -1.6191 v -5.79581 h 1.59166 v 1.50933 h -0.27442 q 0.27442,-0.76839 0.78484,-1.19648 0.51043,-0.4336 1.30077,-0.4336 0.62021,0 1.07575,0.26895 0.45554,0.26343 0.70252,0.77388 0.25246,0.51041 0.25246,1.24587 v 3.62786 h -1.6136 v -3.33149 q 0,-0.58177 -0.27991,-0.88364 -0.27443,-0.30734 -0.78486,-0.30734 -0.33479,0 -0.59275,0.13716 -0.25796,0.13717 -0.40066,0.42809 -0.14271,0.28541 -0.14271,0.73545 z m 7.40942,3.22172 v -8.17781 h 1.77827 l 2.62897,4.18223 q 0.12064,0.19209 0.30735,0.51592 0.18662,0.3238 0.3897,0.69703 0.20855,0.36773 0.39516,0.7135 l -0.1921,0.43359 q -0.0165,-0.37322 -0.0329,-0.85621 -0.0165,-0.48848 -0.022,-0.93852 -0.007,-0.45007 -0.007,-0.70253 v -4.04501 h 1.68497 v 8.17781 h -1.78375 l -2.38199,-3.78702 q -0.14821,-0.23601 -0.37322,-0.61472 -0.22502,-0.38419 -0.50493,-0.86718 -0.27443,-0.48847 -0.57081,-1.03182 l 0.29638,-0.1921 q 0.0329,0.60374 0.0494,1.13612 0.0165,0.52689 0.022,0.93303 0.007,0.40066 0.007,0.63118 v 3.79251 z m 10.7574,0.13173 q -0.87815,0 -1.53127,-0.38418 -0.64764,-0.38968 -1.00988,-1.07574 -0.35675,-0.68606 -0.35675,-1.56421 0,-0.88913 0.36224,-1.56971 0.36773,-0.68606 1.00988,-1.07573 0.64214,-0.3897 1.4709,-0.3897 0.64216,0 1.16356,0.21956 0.5214,0.21404 0.90011,0.62018 0.37869,0.40067 0.58177,0.94952 0.20858,0.54884 0.20858,1.21294 v 0.43359 h -5.12076 v -1.03184 h 4.34139 l -0.72997,0.24699 q 0,-0.43908 -0.15917,-0.75741 -0.15917,-0.31834 -0.45555,-0.48846 -0.29088,-0.17563 -0.69703,-0.17563 -0.40066,0 -0.69155,0.17563 -0.29088,0.17012 -0.45004,0.48846 -0.15918,0.31833 -0.15918,0.75741 v 0.70252 q 0,0.45006 0.15918,0.79034 0.16465,0.3348 0.47199,0.5214 0.30736,0.18112 0.74096,0.18112 0.31831,0 0.55981,-0.0878 0.24698,-0.0933 0.41163,-0.25796 0.17014,-0.17014 0.2415,-0.39517 h 1.4764 q -0.10429,0.57629 -0.48847,1.01537 -0.3842,0.43907 -0.96597,0.69154 -0.58178,0.24699 -1.28431,0.24699 z m 5.70252,-0.0104 q -0.6147,0 -1.07574,-0.26343 -0.45554,-0.26895 -0.70801,-0.77937 -0.25248,-0.51593 -0.25248,-1.24588 v -3.62789 h 1.61911 v 3.33152 q 0,0.58177 0.2799,0.88913 0.27993,0.30186 0.78486,0.30186 0.33481,0 0.58726,-0.13717 0.25797,-0.13717 0.40068,-0.4281 0.14821,-0.29089 0.14821,-0.73546 v -3.22173 h 1.6136 v 5.79582 h -1.58616 v -1.50931 h 0.27443 q -0.27443,0.76838 -0.78486,1.20195 -0.50494,0.42811 -1.30076,0.42811 z m 4.54445,-0.12063 v -5.79582 h 1.55873 v 0.98793 h 0.0165 q 0.15915,-0.52141 0.49943,-0.77388 0.3403,-0.25246 0.91659,-0.25246 0.14276,0 0.25796,0.007 0.12063,0 0.21953,0.007 v 1.3776 q -0.0878,-0.007 -0.29088,-0.0165 -0.19759,-0.0105 -0.40614,-0.0105 -0.32932,0 -0.59276,0.15366 -0.26345,0.14821 -0.41164,0.44456 -0.14823,0.29637 -0.14823,0.73546 v 3.1394 z m 6.83204,0.13172 q -0.87266,0 -1.53677,-0.3787 -0.66409,-0.3787 -1.03732,-1.05927 -0.36772,-0.68056 -0.36772,-1.58616 0,-0.91109 0.36772,-1.59166 0.37323,-0.68056 1.03732,-1.05927 0.66411,-0.38421 1.53677,-0.38421 0.88365,0 1.54227,0.38421 0.6641,0.37871 1.03183,1.05927 0.37321,0.68057 0.37321,1.59166 0,0.9056 -0.37321,1.58616 -0.36773,0.68057 -1.03183,1.05927 -0.65862,0.3787 -1.54227,0.3787 z m 0,-1.31173 q 0.39519,0 0.69156,-0.20309 0.29638,-0.20855 0.46103,-0.59275 0.16465,-0.38418 0.16465,-0.91656 0,-0.54336 -0.16465,-0.92757 -0.16465,-0.38418 -0.46103,-0.58726 -0.29637,-0.20855 -0.69156,-0.20855 -0.38967,0 -0.68605,0.20855 -0.29637,0.20308 -0.46102,0.58726 -0.16466,0.38421 -0.16466,0.92757 0,0.53787 0.16466,0.92205 0.16465,0.37871 0.46102,0.58726 0.29638,0.20309 0.68605,0.20309 z m 5.27574,1.18001 -2.146,-5.79582 h 1.69594 l 0.955,2.86498 q 0.17014,0.51044 0.31832,1.02085 0.14821,0.51043 0.29638,1.02635 h -0.38419 q 0.14278,-0.51592 0.28539,-1.02635 0.14823,-0.51041 0.30736,-1.02085 l 0.94402,-2.86498 h 1.67947 l -2.15148,5.79582 z m 6.16136,0.0988 q -0.57629,0 -1.02633,-0.19211 -0.45006,-0.1921 -0.70803,-0.57628 -0.25795,-0.38968 -0.25795,-0.96596 0,-0.48848 0.18112,-0.81231 0.18112,-0.3293 0.49396,-0.52689 0.31834,-0.20309 0.72448,-0.30736 0.41163,-0.10416 0.86168,-0.14261 0.53238,-0.0549 0.84523,-0.1043 0.31285,-0.0494 0.45007,-0.14262 0.13716,-0.0933 0.13716,-0.27992 v -0.0384 q 0,-0.21404 -0.11527,-0.37321 -0.11528,-0.16466 -0.32929,-0.25796 -0.20858,-0.0933 -0.50495,-0.0933 -0.29638,0 -0.52689,0.0933 -0.22503,0.0933 -0.35676,0.26345 -0.13172,0.17014 -0.15365,0.39517 h -1.52031 q 0.0384,-0.59824 0.35126,-1.03733 0.31834,-0.43907 0.88913,-0.67508 0.57082,-0.24149 1.36663,-0.24149 0.59277,0 1.05928,0.13717 0.46652,0.13172 0.78486,0.38967 0.32381,0.25797 0.48845,0.62569 0.16468,0.36773 0.16468,0.83425 v 3.92973 h -1.5807 v -0.81776 h -0.022 q -0.15366,0.28538 -0.3787,0.48847 -0.22502,0.20307 -0.54885,0.31832 -0.32383,0.10978 -0.76838,0.10978 z m 0.45005,-1.12515 q 0.38969,0 0.6696,-0.14277 0.28539,-0.14276 0.43907,-0.38969 0.15366,-0.24696 0.15366,-0.55981 v -0.5818 q -0.0714,0.0384 -0.1866,0.0769 -0.11528,0.0329 -0.26892,0.0657 -0.15366,0.0276 -0.33482,0.0604 -0.18112,0.0329 -0.37321,0.0604 -0.27991,0.0439 -0.50494,0.13716 -0.22502,0.0878 -0.35675,0.2415 -0.13172,0.14821 -0.13172,0.3787 0,0.20307 0.10979,0.35127 0.10978,0.14821 0.31283,0.22502 0.20309,0.0769 0.47201,0.0769 z m 6.39956,1.16905 q -0.75191,0 -1.3392,-0.23052 -0.58726,-0.236 -0.93852,-0.67509 -0.35126,-0.43907 -0.40615,-1.05927 h 1.59165 q 0.0439,0.3787 0.31834,0.59277 0.27442,0.21404 0.74644,0.21404 0.45004,0 0.70252,-0.17014 0.25795,-0.17014 0.25795,-0.43909 0,-0.23051 -0.19758,-0.37321 -0.19209,-0.14276 -0.54884,-0.20856 l -1.01537,-0.19758 q -0.84523,-0.16466 -1.2843,-0.59276 -0.43908,-0.42809 -0.43908,-1.09769 0,-0.54885 0.29638,-0.96048 0.30187,-0.41164 0.85072,-0.63667 0.55432,-0.22502 1.31173,-0.22502 0.75193,0 1.31175,0.24149 0.55981,0.23601 0.87266,0.67508 0.31834,0.43909 0.33481,1.04281 h -1.49836 q -0.007,-0.35126 -0.27442,-0.58177 -0.26894,-0.23053 -0.70252,-0.23053 -0.41713,0 -0.65313,0.18112 -0.23601,0.17563 -0.23601,0.4336 0,0.22502 0.18662,0.36773 0.18661,0.14277 0.5159,0.21404 l 1.0977,0.21404 q 0.87815,0.17017 1.28978,0.55984 0.41713,0.3842 0.41713,1.02635 0,0.57628 -0.3293,1.00986 -0.32383,0.42811 -0.9056,0.6696 -0.5763,0.23601 -1.3337,0.23601 z m 6.09219,-0.0104 q -0.86718,0 -1.5258,-0.37871 -0.65313,-0.38419 -1.02086,-1.06477 -0.36224,-0.68604 -0.36224,-1.58067 0,-0.90011 0.36224,-1.58068 0.36773,-0.68606 1.02086,-1.07025 0.65862,-0.3842 1.5258,-0.3842 0.5708,0 1.05378,0.17016 0.48299,0.16465 0.83974,0.47201 0.36224,0.30734 0.5763,0.72995 0.21404,0.41713 0.25245,0.92755 h -1.56422 q -0.0329,-0.22502 -0.12625,-0.40614 -0.0878,-0.18111 -0.23052,-0.31284 -0.14277,-0.13173 -0.34028,-0.20308 -0.1921,-0.0714 -0.43909,-0.0714 -0.40614,0 -0.69703,0.21404 -0.29088,0.20857 -0.45004,0.59825 -0.15366,0.3842 -0.15366,0.91658 0,0.52689 0.15366,0.91107 0.15916,0.38419 0.45004,0.59824 0.29089,0.20857 0.69703,0.20857 0.24699,0 0.43909,-0.0714 0.19209,-0.0714 0.32931,-0.20306 0.14276,-0.13173 0.23051,-0.31285 0.0878,-0.18661 0.12626,-0.41712 h 1.57518 q -0.0273,0.50492 -0.24149,0.92754 -0.20855,0.41712 -0.57079,0.72997 -0.36224,0.31285 -0.85072,0.48299 -0.48299,0.17014 -1.05927,0.17014 z m 5.62019,-0.0105 q -0.61471,0 -1.07574,-0.26344 -0.45555,-0.26894 -0.70801,-0.77936 -0.25246,-0.51592 -0.25246,-1.24588 v -3.62789 h 1.61909 v 3.33151 q 0,0.58177 0.2799,0.88913 0.27991,0.30187 0.78486,0.30187 0.33479,0 0.58726,-0.13717 0.25797,-0.13718 0.40066,-0.42811 0.14821,-0.29089 0.14821,-0.73545 v -3.22174 h 1.61361 v 5.79583 h -1.58617 v -1.50932 h 0.27442 q -0.27442,0.76839 -0.78485,1.20196 -0.50494,0.4281 -1.30077,0.4281 z m 6.4215,-0.12063 q -0.99341,0 -1.43798,-0.36224 -0.43907,-0.36771 -0.43907,-1.20745 v -6.60812 h 1.61911 v 6.45443 q 0,0.26895 0.10978,0.37871 0.10979,0.10416 0.37869,0.10416 0.0549,0 0.12064,0 0.0657,0 0.11527,0 v 1.24039 q -0.11527,0 -0.23601,0 -0.11527,0 -0.23052,0 z m 2.96378,0.0988 q -0.57628,0 -1.02632,-0.19209 -0.45007,-0.1921 -0.70804,-0.57628 -0.25794,-0.3897 -0.25794,-0.96598 0,-0.48848 0.18112,-0.81231 0.18112,-0.3293 0.49395,-0.52689 0.31834,-0.20307 0.72448,-0.30736 0.41163,-0.10416 0.8617,-0.1426 0.53237,-0.0549 0.84522,-0.10429 0.31283,-0.0494 0.45004,-0.14262 0.13718,-0.0933 0.13718,-0.27991 v -0.0384 q 0,-0.21404 -0.11527,-0.37321 -0.11528,-0.16466 -0.32932,-0.25795 -0.20855,-0.0933 -0.50493,-0.0933 -0.29637,0 -0.52689,0.0933 -0.22503,0.0933 -0.35675,0.26343 -0.13173,0.17015 -0.15365,0.39519 h -1.5203 q 0.0384,-0.59825 0.35126,-1.03732 0.31833,-0.43909 0.88913,-0.67509 0.57079,-0.2415 1.36663,-0.2415 0.59275,0 1.05927,0.13718 0.46652,0.13171 0.78486,0.38967 0.32381,0.25796 0.48846,0.62568 0.16465,0.36774 0.16465,0.83425 v 3.92975 h -1.58067 v -0.81779 h -0.022 q -0.15365,0.28541 -0.37871,0.48848 -0.22502,0.20307 -0.54883,0.31833 -0.32383,0.10978 -0.76839,0.10978 z m 0.45006,-1.12515 q 0.38968,0 0.6696,-0.14276 0.28539,-0.14277 0.43906,-0.3897 0.15366,-0.24696 0.15366,-0.55981 v -0.58178 q -0.0714,0.0384 -0.1866,0.0769 -0.11528,0.0329 -0.26895,0.0657 -0.15365,0.0276 -0.33479,0.0604 -0.18112,0.0329 -0.37322,0.0604 -0.2799,0.0439 -0.50493,0.13718 -0.22504,0.0878 -0.35675,0.24149 -0.13173,0.14821 -0.13173,0.37869 0,0.20308 0.10978,0.35128 0.10979,0.14821 0.31285,0.22503 0.20306,0.0768 0.47201,0.0768 z m 3.99012,1.02635 v -5.79582 h 1.55872 v 0.98794 h 0.0165 q 0.15916,-0.52142 0.49944,-0.77388 0.3403,-0.25247 0.91658,-0.25247 0.14277,0 0.25797,0.007 0.12063,0 0.21953,0.007 v 1.37761 q -0.0878,-0.007 -0.29089,-0.0165 -0.19759,-0.0105 -0.40614,-0.0105 -0.32932,0 -0.59276,0.15366 -0.26345,0.14821 -0.41164,0.44455 -0.14821,0.29639 -0.14821,0.73547 v 3.1394 z m 10.26892,0.13173 q -1.15808,0 -2.03623,-0.52689 -0.87266,-0.52689 -1.36663,-1.47639 -0.48846,-0.94952 -0.48846,-2.21186 0,-1.30627 0.50494,-2.25577 0.50492,-0.94951 1.38307,-1.45993 0.87818,-0.51043 1.97586,-0.51043 0.70253,0 1.32271,0.20858 0.62021,0.20306 1.09771,0.58725 0.48299,0.37871 0.79033,0.9056 0.30736,0.52689 0.38419,1.16904 h -1.71239 q -0.0714,-0.31283 -0.22503,-0.5653 -0.15365,-0.25797 -0.39518,-0.43909 -0.23599,-0.18112 -0.54335,-0.27441 -0.30187,-0.0988 -0.66959,-0.0988 -0.68606,0 -1.18552,0.3348 -0.49395,0.32929 -0.76289,0.94401 -0.26344,0.60923 -0.26344,1.45444 0,0.83974 0.26893,1.44896 0.26895,0.60921 0.76838,0.94402 0.49946,0.3293 1.19649,0.3293 0.57081,0 1.00439,-0.21404 0.43358,-0.21955 0.67508,-0.60923 0.24698,-0.39518 0.24698,-0.91109 l 0.40066,0.0329 h -2.18441 v -1.28432 h 3.43578 v 1.04282 q 0,1.01537 -0.46652,1.78925 -0.46103,0.77386 -1.2788,1.21293 -0.8178,0.43359 -1.87706,0.43359 z m 4.60481,-0.13173 v -5.79582 h 1.55873 v 0.98794 h 0.0165 q 0.15916,-0.52142 0.49944,-0.77388 0.34029,-0.25247 0.91657,-0.25247 0.14278,0 0.25796,0.007 0.12063,0 0.21954,0.007 v 1.37761 q -0.0878,-0.007 -0.29089,-0.0165 -0.19758,-0.0105 -0.40614,-0.0105 -0.32931,0 -0.59276,0.15366 -0.26344,0.14821 -0.41163,0.44455 -0.14821,0.29639 -0.14821,0.73547 v 3.1394 z m 6.83205,0.13173 q -0.87266,0 -1.53676,-0.37871 -0.66411,-0.37869 -1.03733,-1.05927 -0.36774,-0.68056 -0.36774,-1.58616 0,-0.9111 0.36774,-1.59167 0.37322,-0.68055 1.03733,-1.05927 0.6641,-0.3842 1.53676,-0.3842 0.88364,0 1.54225,0.3842 0.66411,0.37872 1.03184,1.05927 0.37322,0.68057 0.37322,1.59167 0,0.9056 -0.37322,1.58616 -0.36773,0.68058 -1.03184,1.05927 -0.65861,0.37871 -1.54225,0.37871 z m 0,-1.31174 q 0.39517,0 0.69155,-0.20309 0.29638,-0.20855 0.46103,-0.59275 0.16465,-0.38418 0.16465,-0.91656 0,-0.54335 -0.16465,-0.92756 -0.16465,-0.38419 -0.46103,-0.58726 -0.29638,-0.20855 -0.69155,-0.20855 -0.38968,0 -0.68604,0.20855 -0.29638,0.20307 -0.46105,0.58726 -0.16465,0.38421 -0.16465,0.92756 0,0.53787 0.16465,0.92205 0.16467,0.37871 0.46105,0.58726 0.29636,0.20309 0.68604,0.20309 z m 5.87266,1.30076 q -0.61469,0 -1.07574,-0.26343 -0.45554,-0.26895 -0.708,-0.77937 -0.25248,-0.51593 -0.25248,-1.24588 v -3.62789 h 1.6191 v 3.33151 q 0,0.58178 0.27993,0.88913 0.2799,0.30187 0.78484,0.30187 0.3348,0 0.58726,-0.13717 0.25796,-0.13716 0.40067,-0.42811 0.14821,-0.29088 0.14821,-0.73545 v -3.22174 h 1.6136 v 5.79583 h -1.58617 v -1.50932 h 0.27441 q -0.27441,0.76839 -0.78483,1.20196 -0.50495,0.42811 -1.30079,0.42811 z m 4.54445,2.17344 v -8.09001 h 1.59716 v 0.78485 h 0.0165 q 0.18112,-0.30186 0.4336,-0.49945 0.25796,-0.20307 0.58177,-0.30185 0.32932,-0.10443 0.70253,-0.10443 0.74093,0 1.30077,0.38421 0.5653,0.37871 0.87815,1.05927 0.31833,0.67509 0.31833,1.5697 0,0.9056 -0.31284,1.58616 -0.31285,0.68058 -0.87266,1.05929 -0.55984,0.37869 -1.32273,0.37869 -0.3787,0 -0.70252,-0.10979 -0.31833,-0.10978 -0.5708,-0.3293 -0.24699,-0.21954 -0.41164,-0.54885 h -0.0165 v 3.16136 z m 2.90341,-3.49068 q 0.39516,0 0.68056,-0.19757 0.29089,-0.20308 0.45007,-0.58179 0.16465,-0.38418 0.16465,-0.92754 0,-0.54335 -0.16465,-0.92207 -0.15918,-0.3787 -0.45007,-0.58177 -0.2854,-0.20308 -0.68056,-0.20308 -0.40614,0 -0.71899,0.21406 -0.30736,0.20855 -0.4775,0.59274 -0.16465,0.37872 -0.16465,0.90012 0,0.51592 0.16465,0.90011 0.17014,0.38418 0.4775,0.59824 0.31285,0.20855 0.71899,0.20855 z"
       id="text4"
       aria-label="The London Neurovascular Group" /><path
       style="fill:#008080;stroke-width:0.240542"
       d="m 42.309065,148.75419 c -0.888324,-0.28015 -1.694625,-0.55045 -1.791782,-0.6007 -0.216848,-0.11214 -0.249136,-0.16467 -1.192502,-1.9401 -0.418481,-0.78758 -1.005785,-1.8902 -1.305118,-2.45026 -0.299334,-0.56006 -0.576919,-1.13285 -0.616856,-1.27286 -0.05122,-0.1796 -0.0669,-1.1825 -0.05325,-3.40493 l 0.01936,-3.15034 0.795541,-1.51089 c 0.437549,-0.831 0.99602,-1.88972 1.241047,-2.35271 l 0.445503,-0.84183 1.177401,-0.68791 c 2.486078,-1.45251 2.832913,-1.63925 3.04454,-1.63925 0.24408,0 0.491448,0.1207 1.449914,0.70743 0.39366,0.24099 0.743562,0.43815 0.777558,0.43815 0.03399,0 0.401074,-0.21065 0.81573,-0.4681 0.414653,-0.25745 0.851742,-0.5184 0.971305,-0.57987 0.407145,-0.20936 0.593253,-0.13642 2.551097,0.99983 0.997608,0.57898 1.890611,1.12021 1.984445,1.20276 0.09383,0.0826 0.448327,0.69421 0.787755,1.35929 0.339429,0.66507 0.892723,1.73905 1.229544,2.38663 l 0.612398,1.17739 -0.01285,3.14818 -0.01285,3.14818 -0.358262,0.73407 c -0.197045,0.40374 -0.647395,1.2639 -1.000779,1.91147 -0.353383,0.64757 -0.859896,1.57563 -1.125585,2.06234 -0.265689,0.48673 -0.554609,0.93837 -0.642043,1.00365 -0.08743,0.0652 -0.702695,0.28507 -1.367247,0.48844 -1.915805,0.58628 -2.227824,0.6675 -2.39913,0.6245 -0.08753,-0.022 -0.585421,-0.38107 -1.10642,-0.798 l -0.947268,-0.75805 -0.223386,0.18043 c -0.122862,0.0992 -0.561712,0.45418 -0.97522,0.78878 -0.604709,0.48933 -0.791518,0.60791 -0.95465,0.606 -0.111548,-9.5e-4 -0.929626,-0.23158 -1.817947,-0.51172 z m 0.923283,-1.18837 c -0.110113,-0.48788 -0.787474,-2.69555 -0.827218,-2.6961 -0.02527,-2.3e-4 -0.413987,0.27046 -0.863822,0.60182 l -0.817878,0.60245 0.25985,0.50477 0.259847,0.50477 0.958673,0.32327 c 0.527272,0.1778 0.983733,0.32569 1.014362,0.32865 0.03063,0.003 0.03791,-0.0734 0.01619,-0.16963 z m 7.153151,-0.17558 0.924332,-0.30484 0.270697,-0.50294 c 0.148883,-0.27662 0.254916,-0.52848 0.23563,-0.55968 -0.01929,-0.0312 -0.36171,-0.28694 -0.76094,-0.5683 -0.399232,-0.28135 -0.743909,-0.54073 -0.765949,-0.57639 -0.08356,-0.1352 -0.146532,-0.0524 -0.253067,0.33292 -0.09411,0.34032 -0.598784,2.06256 -0.711516,2.42808 -0.02625,0.0851 -0.01154,0.11137 0.04958,0.0885 0.04779,-0.0178 0.502847,-0.16969 1.011232,-0.33734 z m -5.378324,-0.35444 c 0.262415,-0.21276 0.505994,-0.44078 0.541292,-0.50674 0.04013,-0.075 0.05786,-0.82548 0.04732,-2.00315 l -0.01686,-1.88324 -0.922829,0.64266 c -0.507555,0.35346 -0.960153,0.67971 -1.00577,0.725 -0.0681,0.0676 5.6e-5,0.38016 0.381057,1.74732 0.255198,0.91572 0.471803,1.66497 0.481341,1.66497 0.0095,0 0.232043,-0.17407 0.494455,-0.38682 z m 3.270238,-0.30123 c 0.61937,-2.11941 0.753214,-2.65425 0.682581,-2.72759 -0.03939,-0.0409 -0.501212,-0.36448 -1.026269,-0.71907 l -0.95465,-0.64471 -0.01783,1.83283 c -0.0098,1.00806 -0.0022,1.89658 0.01674,1.97448 0.02974,0.12185 0.947971,0.96269 1.058882,0.96964 0.02172,9.6e-4 0.129967,-0.30715 0.240558,-0.68558 z m -7.423429,-2.43047 c 0.370314,-0.26253 0.654132,-0.49709 0.630708,-0.52126 -0.06469,-0.0667 -2.683787,-1.32201 -2.683787,-1.28629 0,0.0171 0.180941,0.35207 0.402089,0.74432 0.221147,0.39225 0.50985,0.90812 0.641559,1.14637 0.131709,0.23826 0.261218,0.42442 0.287801,0.41369 0.02659,-0.0108 0.351316,-0.2343 0.72163,-0.49683 z m 12.308238,-0.66825 c 0.35465,-0.64758 0.63332,-1.17741 0.619266,-1.17741 -0.117811,0 -2.700822,1.35751 -2.657975,1.3969 0.110743,0.10182 1.325604,0.95791 1.359361,0.95791 0.01901,0 0.324698,-0.52984 0.679348,-1.1774 z m -9.23225,-1.47972 c 0.643859,-0.44629 1.163712,-0.8295 1.155229,-0.85156 -0.03895,-0.10128 -2.980293,-2.15521 -3.082276,-2.15234 -0.06343,0.002 -0.845625,0.16729 -1.738222,0.3678 l -1.622905,0.36458 v 0.52673 0.52673 l 1.972943,1.00958 c 1.085117,0.55526 2.011562,1.01191 2.058761,1.01476 0.0472,0.003 0.612609,-0.35997 1.25647,-0.80628 z m 8.029195,-0.22386 1.988852,-1.00349 v -0.52772 -0.5277 l -0.493235,-0.0979 c -0.271279,-0.0538 -1.058568,-0.22218 -1.749528,-0.37405 l -1.256292,-0.27614 -0.271148,0.20165 c -0.149131,0.11091 -0.815297,0.59123 -1.480372,1.06737 -0.665073,0.47614 -1.209221,0.89039 -1.209221,0.92054 0,0.0749 2.33884,1.65882 2.418444,1.63777 0.035,-0.01 0.958629,-0.46842 2.0525,-1.02034 z m -6.334577,-3.6902 c 0.0099,-0.91885 -0.0076,-1.70712 -0.0388,-1.75169 -0.09364,-0.1337 -1.959708,-1.67863 -1.990437,-1.64791 -0.06807,0.0681 -0.719821,3.18784 -0.675273,3.23234 0.09379,0.0937 2.595292,1.8316 2.64087,1.83475 0.02512,0.002 0.05375,-0.74864 0.06365,-1.66749 z m 2.143654,1.14835 c 0.406049,-0.28726 1.003186,-0.70648 1.326973,-0.93159 0.323784,-0.22512 0.588699,-0.44432 0.588699,-0.48711 0,-0.13015 -0.646119,-2.98531 -0.69613,-3.07615 -0.03344,-0.0607 -0.32924,0.15306 -1.043605,0.75433 l -0.996928,0.83913 v 1.71183 c 0,0.94152 0.01862,1.71185 0.04136,1.71185 0.02276,0 0.37358,-0.23503 0.779629,-0.52229 z m -7.989614,-1.06129 0.882262,-0.17978 -0.99159,-0.67758 c -0.545376,-0.37267 -1.006831,-0.67759 -1.02546,-0.67759 -0.01861,0 -0.03387,0.4015 -0.03387,0.89223 v 0.89221 l 0.1432,-0.0349 c 0.07876,-0.0191 0.540213,-0.11576 1.025455,-0.21464 z m 14.233034,-0.64394 c 0,-0.49005 -0.016,-0.89101 -0.03554,-0.89101 -0.05672,0 -1.930326,1.27358 -1.971414,1.34006 -0.02041,0.033 0.02899,0.0611 0.109808,0.0625 0.08082,9.5e-4 0.504947,0.084 0.942496,0.18371 0.437547,0.0998 0.83134,0.18461 0.875095,0.18858 0.0602,0.006 0.07956,-0.20955 0.07956,-0.88378 z m -11.960073,-2.1432 0.357171,-1.6257 -0.546973,-0.46474 c -0.300834,-0.25561 -0.695177,-0.58255 -0.87632,-0.72653 l -0.329347,-0.2618 -0.764416,1.51289 c -0.56858,1.12531 -0.743127,1.52482 -0.681318,1.5594 0.04571,0.0256 0.609497,0.41623 1.252872,0.86813 0.643377,0.45189 1.183586,0.80866 1.200467,0.79283 0.01688,-0.0158 0.191421,-0.76034 0.387864,-1.65448 z m 10.099572,0.83567 c 0.69074,-0.47412 1.254832,-0.88223 1.25354,-0.90692 -0.0019,-0.0377 -0.670994,-1.38567 -1.32483,-2.66938 l -0.169779,-0.33333 -0.858515,0.71067 c -0.472184,0.39087 -0.859875,0.74135 -0.861532,0.77884 -0.0039,0.088 0.665779,3.28107 0.688248,3.28168 0.0093,2.5e-4 0.582128,-0.38745 1.272868,-0.86156 z m -6.493764,-3.29448 c 0.01903,-0.85595 0.01646,-1.62855 -0.0057,-1.71689 -0.03946,-0.15723 -0.83264,-0.73646 -1.339407,-0.97812 l -0.20949,-0.0999 -1.107582,0.63243 c -0.609169,0.34784 -1.107579,0.66341 -1.107579,0.70128 0,0.0379 0.262616,0.2873 0.583592,0.55429 1.077413,0.89617 3.106775,2.50801 3.129307,2.48548 0.01226,-0.0123 0.03787,-0.72263 0.05689,-1.57858 z m 2.42187,0.7085 c 1.151918,-0.90819 2.686585,-2.1567 2.686585,-2.18563 0,-0.01 -0.336516,-0.21223 -0.747811,-0.44969 -0.411295,-0.23747 -0.890623,-0.52671 -1.065174,-0.64277 -0.174554,-0.11607 -0.371929,-0.21102 -0.438611,-0.21102 -0.149331,0 -1.22735,0.65959 -1.423808,0.87117 -0.140859,0.15169 -0.143197,0.18119 -0.143197,1.8054 0,0.90814 0.01537,1.65117 0.03417,1.65117 0.01879,0 0.512823,-0.37738 1.097846,-0.83863 z"
       id="path5"
       sodipodi:nodetypes="sssssscsccsssssssssccccssssscscsscssscscccssssscssssssssssscssssscssccccccsssssssssssssscscccscsscccsscssssssscscsssssccsssscssscssssccssssccscsssssscscsccsccscsscsccsssssssss" /></g></svg>
